<svg width="17" height="17" viewBox="0 0 17 17" fill="none" xmlns="http://www.w3.org/2000/svg">
<path d="M8.49999 0C3.825 0 0 3.83182 0 8.55121C0 12.8183 3.111 16.3599 7.17399 17V11.0261H5.01499V8.55121H7.17399V6.66515C7.17399 4.52309 8.44049 3.34538 10.387 3.34538C11.3135 3.34538 12.2825 3.50753 12.2825 3.50753V5.61546H11.2115C10.1575 5.61546 9.82599 6.27258 9.82599 6.9468V8.55121H12.189L11.8065 11.0261H9.82599V17C11.8289 16.6824 13.6529 15.6563 14.9684 14.1069C16.2839 12.5576 17.0046 10.5871 17 8.55121C17 3.83182 13.175 0 8.49999 0Z" fill="#6B7280"/>
</svg>
