<svg width="16" height="16" viewBox="0 0 33 33" fill="none" xmlns="http://www.w3.org/2000/svg">
<path d="M16.5 0C7.42499 0 0 7.43825 0 16.5994C0 24.8825 6.03899 31.7575 13.926 33V21.4036H9.73499V16.5994H13.926V12.9382C13.926 8.78011 16.3845 6.49397 20.163 6.49397C21.9615 6.49397 23.8425 6.80873 23.8425 6.80873V10.9006H21.7635C19.7175 10.9006 19.074 12.1762 19.074 13.485V16.5994H23.661L22.9185 21.4036H19.074V33C22.962 32.3834 26.5026 30.3916 29.0563 27.384C31.61 24.3766 33.0089 20.5515 33 16.5994C33 7.43825 25.575 0 16.5 0Z" fill="black"/>
</svg>
