<svg width="16" height="16" viewBox="0 0 38 38" fill="none" xmlns="http://www.w3.org/2000/svg">
<path d="M27.0706 32.6182C30.8362 30.3313 33.486 26.7146 34.5318 22.4334C35.5788 18.1515 34.8945 13.7193 32.6092 9.95183C27.8901 2.17369 17.7275 -0.313507 9.95489 4.40681C6.18917 6.69341 3.53949 10.3105 2.49306 14.5917C1.99902 16.6134 1.89072 18.6681 2.15444 20.6713C2.44922 22.9104 3.20919 25.0849 4.41563 27.0732C9.13472 34.8511 19.2974 37.3386 27.0706 32.6182ZM27.8311 30.4826C24.5424 28.7293 21.416 25.9337 18.7891 22.4236C18.9076 22.3278 19.0234 22.2293 19.1467 22.1384C22.9768 19.316 28.4337 19.439 33.1652 22.406C32.3071 25.646 30.446 28.4529 27.8311 30.4826ZM31.5351 10.7299C32.6131 12.5348 33.2952 14.5009 33.5618 16.5264C33.7575 18.0129 33.7187 19.5306 33.4623 21.0384C28.3613 18.0238 22.5263 18.0083 18.3648 21.0751C18.2446 21.1637 18.1319 21.2603 18.0156 21.353C17.6077 20.763 17.2135 20.1554 16.8348 19.5313C16.2168 18.513 15.6597 17.4781 15.1593 16.4356C15.7005 16.0637 16.2531 15.703 16.8196 15.3589C21.6472 12.4274 26.8569 10.797 31.5351 10.7299ZM30.6669 9.43091C25.9836 9.67376 20.8721 11.3537 16.1354 14.2301C15.6123 14.5477 15.104 14.8785 14.6039 15.2162C13.9869 13.7903 13.4797 12.3561 13.0954 10.9337C13.5941 10.6713 14.0889 10.3964 14.5762 10.1004C17.4134 8.37741 19.8825 6.16704 21.7544 3.6952C25.2249 4.45654 28.4249 6.42295 30.6669 9.43091ZM20.281 3.44662C18.5653 5.56626 16.3766 7.46266 13.8922 8.97117C13.5234 9.19515 13.1498 9.40576 12.7743 9.60959C12.4087 7.93892 12.2138 6.29539 12.199 4.71169C14.7903 3.52304 17.5854 3.12659 20.281 3.44662ZM10.6389 5.53567C10.7264 5.48249 10.8158 5.43488 10.9041 5.38369C10.9326 6.11883 10.9835 6.86063 11.0828 7.61432C11.196 8.47464 11.3654 9.3467 11.5682 10.2228C9.3166 11.297 6.97939 12.0085 4.66583 12.3222C5.91009 9.51997 7.96403 7.16036 10.6389 5.53567ZM3.77468 14.9055C3.87392 14.4993 3.99859 14.104 4.12869 13.7116C6.72986 13.4457 9.3685 12.7079 11.9029 11.5288C12.3175 13.0125 12.8525 14.5039 13.5065 15.9852C9.82334 18.6712 6.86589 21.8855 4.95174 25.2976C3.33768 22.082 2.91083 18.4399 3.77468 14.9055ZM5.71845 26.6616C7.45672 23.2665 10.407 19.9409 14.0698 17.212C14.5632 18.2241 15.1078 19.2282 15.7073 20.2162C16.1276 20.9091 16.5678 21.5813 17.0235 22.2341C14.4242 24.8473 13.1242 28.6402 13.4314 32.8063C10.3472 31.7119 7.59936 29.6186 5.71845 26.6616ZM17.8151 23.3215C20.386 26.7291 23.4187 29.4924 26.6264 31.3269C26.5445 31.3787 26.4696 31.4385 26.3865 31.489C22.776 33.6816 18.6054 34.1818 14.8016 33.221C14.4035 29.3315 15.4898 25.7673 17.8151 23.3215Z" fill="black"/>
</svg>
