<svg width="20" height="20" viewBox="0 0 20 20" fill="none" xmlns="http://www.w3.org/2000/svg">
<path d="M13.9455 16.8033C15.8853 15.6252 17.2504 13.7621 17.7891 11.5566C18.3285 9.35076 17.976 7.06754 16.7987 5.1267C14.3676 1.11978 9.13233 -0.161504 5.12828 2.27018C3.18836 3.44812 1.82337 5.31145 1.2843 7.51692C1.0298 8.55841 0.974007 9.61692 1.10986 10.6489C1.26172 11.8023 1.65322 12.9225 2.27472 13.9468C4.70576 17.9536 9.94106 19.2351 13.9455 16.8033ZM14.3373 15.7032C12.643 14.8 11.0325 13.3598 9.67926 11.5516C9.74029 11.5022 9.79996 11.4514 9.86345 11.4046C11.8365 9.95067 14.6477 10.014 17.0851 11.5425C16.6431 13.2116 15.6843 14.6575 14.3373 15.7032ZM16.2454 5.52755C16.8007 6.45732 17.1521 7.47018 17.2894 8.51358C17.3902 9.27936 17.3703 10.0612 17.2381 10.8379C14.6104 9.28497 11.6045 9.277 9.46067 10.8569C9.39873 10.9025 9.34067 10.9523 9.28079 11C9.07062 10.6961 8.86757 10.3831 8.67246 10.0616C8.35413 9.537 8.06714 9.00385 7.80933 8.46683C8.08814 8.27527 8.37283 8.08941 8.66463 7.91216C11.1516 6.40199 13.8354 5.56208 16.2454 5.52755ZM15.7981 4.85835C13.3855 4.98345 10.7523 5.84887 8.3122 7.33064C8.04269 7.49425 7.78083 7.6647 7.52323 7.83863C7.20538 7.10411 6.94408 6.36527 6.7461 5.63253C7.00303 5.49732 7.25792 5.3557 7.50896 5.20326C8.97055 4.31564 10.2425 3.17696 11.2068 1.90359C12.9946 2.29579 14.6432 3.30879 15.7981 4.85835ZM10.4478 1.77553C9.56396 2.86747 8.43641 3.8444 7.1566 4.62151C6.96662 4.73689 6.77416 4.84539 6.58069 4.9504C6.39233 4.08975 6.29197 3.24308 6.28433 2.42724C7.61925 1.8149 9.05913 1.61067 10.4478 1.77553ZM5.48064 2.85171C5.52573 2.82431 5.57179 2.79978 5.61727 2.77342C5.63197 3.15213 5.65819 3.53426 5.7093 3.92253C5.76765 4.36572 5.85492 4.81497 5.95935 5.26631C4.79946 5.81965 3.59544 6.18618 2.40361 6.3478C3.04459 4.90423 4.10268 3.68867 5.48064 2.85171ZM1.94453 7.67857C1.99565 7.46933 2.05988 7.26571 2.1269 7.06353C3.4669 6.92659 4.82619 6.54652 6.13182 5.93908C6.34537 6.7034 6.62099 7.4717 6.95792 8.23479C5.06051 9.6185 3.53697 11.2743 2.55089 13.0321C1.71941 11.3756 1.49952 9.49935 1.94453 7.67857ZM2.94587 13.7348C3.84134 11.9858 5.36116 10.2726 7.2481 8.86677C7.50225 9.38818 7.7828 9.90545 8.09163 10.4144C8.30815 10.7713 8.53493 11.1176 8.76968 11.4539C7.43064 12.8001 6.76095 14.754 6.91923 16.9002C5.3304 16.3364 3.91482 15.2581 2.94587 13.7348ZM9.17748 12.0141C10.5019 13.7695 12.0642 15.193 13.7166 16.1381C13.6744 16.1648 13.6358 16.1956 13.5931 16.2216C11.7331 17.3511 9.58462 17.6088 7.62508 17.1139C7.41998 15.1102 7.97958 13.2741 9.17748 12.0141Z" fill="#6B7280"/>
</svg>
