<svg width="16" height="16" viewBox="0 0 33 33" fill="none" xmlns="http://www.w3.org/2000/svg">
<path fill-rule="evenodd" clip-rule="evenodd" d="M16.4992 0C7.38735 0 0 7.57485 0 16.9187C0 24.3933 4.72662 30.7345 11.2839 32.9702C12.1097 33.1268 12.4101 32.6059 12.4101 32.156C12.4101 31.7552 12.3957 30.692 12.3885 29.2787C7.79858 30.302 6.83015 27.0104 6.83015 27.0104C6.07962 25.0562 4.99781 24.5365 4.99781 24.5365C3.49969 23.4876 5.11162 23.508 5.11162 23.508C6.76754 23.6281 7.63908 25.2509 7.63908 25.2509C9.11054 27.8363 11.5013 27.088 12.441 26.6577C12.5903 25.5624 13.0177 24.8184 13.4885 24.3946C9.82512 23.9678 5.97342 22.5163 5.97342 16.0338C5.97342 14.1862 6.61608 12.6758 7.67123 11.4928C7.50242 11.0669 6.93508 9.34688 7.83327 7.01656C7.83327 7.01656 9.21842 6.56195 12.3712 8.75215C13.6865 8.37519 15.0983 8.18693 16.5017 8.18129C17.9029 8.18736 19.3152 8.37519 20.6322 8.75215C23.7828 6.56195 25.1659 7.01656 25.1659 7.01656C26.0662 9.34688 25.4993 11.0669 25.33 11.4928C26.3877 12.6758 27.0257 14.1862 27.0257 16.0338C27.0257 22.5315 23.1685 23.963 19.4928 24.3803C20.0843 24.903 20.6123 25.9376 20.6123 27.5162C20.6123 29.7767 20.5924 31.6008 20.5924 32.1556C20.5924 32.6089 20.889 33.1359 21.7267 32.9681C28.2768 30.7275 33 24.3912 33 16.9187C33 7.57485 25.6127 0 16.4992 0Z" fill="#181616"/>
</svg>
