<svg width="25" height="25" viewBox="0 0 25 25" fill="none" xmlns="http://www.w3.org/2000/svg">
<g filter="url(#filter0_d_360_717)">
<path fill-rule="evenodd" clip-rule="evenodd" d="M12.4996 0C7.8056 0 4 3.90219 4 8.71569C4 12.5663 6.43492 15.8329 9.81291 16.9847C10.2383 17.0653 10.3931 16.797 10.3931 16.5652C10.3931 16.3587 10.3857 15.811 10.382 15.083C8.01745 15.6101 7.51856 13.9144 7.51856 13.9144C7.13192 12.9077 6.57463 12.64 6.57463 12.64C5.80287 12.0997 6.63326 12.1102 6.63326 12.1102C7.48631 12.1721 7.93528 13.0081 7.93528 13.0081C8.69331 14.3399 9.92494 13.9544 10.409 13.7328C10.4859 13.1685 10.7061 12.7853 10.9486 12.5669C9.06142 12.347 7.07722 11.5993 7.07722 8.25982C7.07722 7.30807 7.40828 6.52995 7.95185 5.92056C7.86488 5.70111 7.57262 4.81506 8.03532 3.61459C8.03532 3.61459 8.74888 3.3804 10.373 4.50869C11.0506 4.31449 11.7779 4.21751 12.5009 4.2146C13.2227 4.21773 13.9502 4.31449 14.6287 4.50869C16.2518 3.3804 16.9642 3.61459 16.9642 3.61459C17.428 4.81506 17.136 5.70111 17.0488 5.92056C17.5937 6.52995 17.9223 7.30807 17.9223 8.25982C17.9223 11.6071 15.9353 12.3446 14.0418 12.5596C14.3465 12.8288 14.6185 13.3618 14.6185 14.175C14.6185 15.3395 14.6082 16.2792 14.6082 16.565C14.6082 16.7985 14.761 17.07 15.1925 16.9836C18.5668 15.8293 21 12.5651 21 8.71569C21 3.90219 17.1944 0 12.4996 0Z" fill="#6B7280"/>
</g>
<defs>
<filter id="filter0_d_360_717" x="0" y="0" width="25" height="25" filterUnits="userSpaceOnUse" color-interpolation-filters="sRGB">
<feFlood flood-opacity="0" result="BackgroundImageFix"/>
<feColorMatrix in="SourceAlpha" type="matrix" values="0 0 0 0 0 0 0 0 0 0 0 0 0 0 0 0 0 0 127 0" result="hardAlpha"/>
<feOffset dy="4"/>
<feGaussianBlur stdDeviation="2"/>
<feComposite in2="hardAlpha" operator="out"/>
<feColorMatrix type="matrix" values="0 0 0 0 0 0 0 0 0 0 0 0 0 0 0 0 0 0 0.25 0"/>
<feBlend mode="normal" in2="BackgroundImageFix" result="effect1_dropShadow_360_717"/>
<feBlend mode="normal" in="SourceGraphic" in2="effect1_dropShadow_360_717" result="shape"/>
</filter>
</defs>
</svg>
