<svg width="17" height="17" viewBox="0 0 17 17" fill="none" xmlns="http://www.w3.org/2000/svg">
<path d="M15.0073 2.69303C15.7704 2.11554 16.2757 1.32731 16.5231 0.324841C15.7808 0.810356 15.0413 1.14335 14.3028 1.32731C13.6389 0.447093 12.7984 0 11.7907 0C10.8057 0 9.97372 0.426135 9.29471 1.25512C8.61947 2.08993 8.27854 3.10403 8.27854 4.28813C8.27854 4.6479 8.31537 4.96925 8.38903 5.2417C5.48408 5.11944 3.07966 3.63379 1.18521 0.774262C0.864119 1.47401 0.703572 2.18656 0.703572 2.92357C0.703572 4.43833 1.22204 5.63872 2.2571 6.5201C1.66685 6.45839 1.14649 6.27443 0.703572 5.97288C0.703572 7.05452 0.961391 7.95802 1.47797 8.75324C1.99644 9.54031 2.66224 10.0421 3.47536 10.2564C3.18071 10.3495 2.87001 10.3937 2.5508 10.3937C2.25615 10.3937 2.04744 10.3635 1.92373 10.2971C2.14094 11.1785 2.5508 11.8934 3.14294 12.4406C3.73318 12.9901 4.4122 13.2801 5.17527 13.3057C3.91734 14.5224 2.47903 15.1243 0.851842 15.1243C0.453308 15.1243 0.170935 15.1173 0 15.0801C1.60263 16.3631 3.38659 17 5.36037 17C7.38042 17 9.16532 16.3689 10.7188 15.1068C12.2724 13.8517 13.4189 12.3032 14.1555 10.4799C14.8959 8.65893 15.2623 6.76344 15.2623 4.78412V4.23923C15.9782 3.57558 16.5571 2.82809 17 2.0026C16.3578 2.34374 15.6939 2.57544 15.0073 2.69303Z" fill="#6B7280"/>
</svg>
