<svg width="16" height="16" viewBox="0 0 33 33" fill="none" xmlns="http://www.w3.org/2000/svg">
<path d="M29.1319 5.22766C30.6131 4.10664 31.5939 2.57654 32.0742 0.630574C30.6333 1.57304 29.1979 2.21944 27.7643 2.57654C26.4755 0.867887 24.844 0 22.8879 0C20.9758 0 19.3608 0.827204 18.0427 2.43641C16.7319 4.05691 16.0701 6.02548 16.0701 8.32402C16.0701 9.0224 16.1416 9.64619 16.2846 10.1751C10.6456 9.93774 5.97817 7.05383 2.30071 1.50298C1.67741 2.86131 1.36576 4.2445 1.36576 5.67516C1.36576 8.61557 2.3722 10.9458 4.38142 12.6567C3.23565 12.5369 2.22554 12.1798 1.36576 11.5944C1.36576 13.6941 1.86623 15.4479 2.86901 16.9916C3.87545 18.5194 5.16788 19.4935 6.74629 19.9094C6.17432 20.0902 5.57119 20.1761 4.95156 20.1761C4.37959 20.1761 3.97445 20.1173 3.73429 19.9885C4.15594 21.6994 4.95156 23.0871 6.10099 24.1494C7.24676 25.2161 8.56486 25.7789 10.0461 25.8286C7.60424 28.1905 4.81223 29.3589 1.65357 29.3589C0.879951 29.3589 0.331815 29.3454 0 29.2731C3.11099 31.7637 6.57397 33 10.4054 33C14.3267 33 17.7915 31.775 20.8072 29.325C23.8228 26.8886 26.0484 23.8827 27.4783 20.3433C28.9156 16.8085 29.6269 13.129 29.6269 9.28683V8.22909C31.0164 6.94083 32.1402 5.48983 33 3.88741C31.7534 4.54962 30.4646 4.99938 29.1319 5.22766Z" fill="black"/>
</svg>
